<?xml version="1.0" encoding="UTF-8" standalone="no"?>
<!-- Created with Inkscape (http://www.inkscape.org/) -->

<svg
   width="680"
   height="180"
   viewBox="0 0 179.91666 47.625"
   version="1.1"
   id="svg1"
   xml:space="preserve"
   inkscape:version="1.3.2 (091e20e, 2023-11-25, custom)"
   sodipodi:docname="banner.svg"
   inkscape:export-filename="..\docs\_static\banner.png"
   inkscape:export-xdpi="96"
   inkscape:export-ydpi="96"
   xmlns:inkscape="http://www.inkscape.org/namespaces/inkscape"
   xmlns:sodipodi="http://sodipodi.sourceforge.net/DTD/sodipodi-0.dtd"
   xmlns="http://www.w3.org/2000/svg"
   xmlns:svg="http://www.w3.org/2000/svg"><sodipodi:namedview
     id="namedview1"
     pagecolor="#a6a6a6"
     bordercolor="#000000"
     borderopacity="0.25"
     inkscape:showpageshadow="2"
     inkscape:pageopacity="0.0"
     inkscape:pagecheckerboard="0"
     inkscape:deskcolor="#d1d1d1"
     inkscape:document-units="mm"
     inkscape:zoom="1.4520903"
     inkscape:cx="343.98687"
     inkscape:cy="69.899234"
     inkscape:window-width="1920"
     inkscape:window-height="1013"
     inkscape:window-x="-9"
     inkscape:window-y="-9"
     inkscape:window-maximized="1"
     inkscape:current-layer="layer1" /><defs
     id="defs1" /><g
     inkscape:label="Layer 1"
     inkscape:groupmode="layer"
     id="layer1"
     transform="translate(-13.530182,-101.8304)"><rect
       style="fill:#ffffff;stroke:#ffffff;stroke-width:2.70899;stroke-linecap:round;stroke-linejoin:round"
       id="rect1"
       width="174.73804"
       height="42.819019"
       x="16.119497"
       y="104.23339"
       rx="5"
       ry="5" /><g
       id="g4"
       transform="matrix(0.3334011,0,0,0.3334011,13.843941,103.08294)"><path
         fill="#f4aa41"
         d="m 65.938554,128.30588 c -0.377875,0 -0.749067,-0.0994 -1.076553,-0.28808 L 16.009585,99.312504 C 15.343193,98.927761 14.932816,98.216812 14.933031,97.447503 L 14.392603,38.422578 c 0,-0.769302 0.410162,-1.480253 1.076553,-1.865011 L 67.553368,5.69985 c 0.666607,-0.3826055 1.486499,-0.3826055 2.15309,0 l 48.854792,28.166348 c 1.03004,0.594039 1.38359,1.910657 0.78933,2.940913 -0.18839,0.326624 -0.45926,0.597914 -0.78522,0.786956 L 68.630137,67.737603 68.091645,126.15687 c -0.003,1.1872 -0.96588,2.14814 -2.153091,2.14901 z"
         id="path1-3"
         style="stroke-width:2.15309" /><g
         id="g2-0-7-6-5"
         transform="matrix(1.3012794,0.30075879,-0.30075879,1.3012794,6.8193764,24.769194)"><g
           id="color-3-9-4-4-1"><path
             fill="#b399c8"
             d="M 42.3339,49.147 A 29.9446,29.9446 0 0 1 22.9961,40.9956 v 0 C 14.9824,33.6313 14.6181,22.9204 14.4629,18.3472 l -0.0215,-0.627 a 2.9039,2.9039 0 0 1 3.457,-2.9512 c 17.0049,3.3555 21.6943,16.3243 22.0557,17.4 a 49.5426,49.5426 0 0 1 3.5742,15.9219 1,1 0 0 1 -0.9668,1.0518 C 42.5322,49.144 42.455,49.147 42.3339,49.147 Z"
             id="path1-6-3-1-3-1" /><path
             fill="#61b2e4"
             d="m 44.4355,55.3159 c -11.6455,0 -17.3757,-6.9734 -17.6521,-7.3542 a 1,1 0 0 1 0.2617,-1.4239 11.1031,11.1031 0 0 1 12.7742,-1.5734 c -1.4648,-9.0782 1.877,-13.5684 2.0312,-13.77 a 0.9982,0.9982 0 0 1 0.75,-0.39 0.9705,0.9705 0 0 1 0.78,0.3242 c 8.9434,9.7715 8.793,16.5322 7.9072,19.6914 -0.0341,0.1406 -1.0615,4.0918 -4.7714,4.4063 -0.7117,0.0613 -1.405,0.0896 -2.0808,0.0896 z"
             id="path2-7-6-8-0-0" /></g><g
           id="line-5-0-5-3-8"><path
             fill="none"
             stroke="#000000"
             stroke-linecap="round"
             stroke-linejoin="round"
             stroke-width="2"
             d="m 55.1837,57.69 c 0,0 -20.2237,-11.813 -32.0863,-33.4838"
             id="path3-3-6-9-0-5" /><path
             fill="none"
             stroke="#000000"
             stroke-linecap="round"
             stroke-linejoin="round"
             stroke-width="2"
             d="M 45.2281,54.3024 C 33.2973,54.7629 27.6,47.4216 27.6,47.4216"
             id="path4-5-2-7-9-0" /><path
             fill="none"
             stroke="#000000"
             stroke-linecap="round"
             stroke-linejoin="round"
             stroke-width="2"
             d="m 40.528,42.4827 c -0.5595,-7.1945 2.1157,-10.6784 2.1157,-10.6784 8.8346,9.6533 8.4063,16.1616 7.6813,18.7468"
             id="path5-6-6-5-2-6" /><path
             fill="none"
             stroke="#000000"
             stroke-linecap="round"
             stroke-linejoin="round"
             stroke-width="2"
             d="M 37.0138,47.4216 A 30.15,30.15 0 0 1 23.673,40.26 C 15.6005,32.8414 15.6056,22.0186 15.4409,17.6826 a 1.9032,1.9032 0 0 1 2.2642,-1.9314 C 34.6938,19.1027 39.02,32.5284 39.02,32.5284"
             id="path6-2-1-3-5-4" /></g></g><polygon
         fill="#f4aa41"
         points="60.413,21.988 35.5724,36.0333 36,64.5715 60.7589,50.4641 "
         id="polygon1"
         transform="matrix(2.1530944,0,0,2.1530944,-7.9606039,-9.8454912)" /><path
         fill="#d0cfce"
         d="m 87.726149,71.925369 c -1.672748,-0.951666 -2.701064,-2.732705 -2.689216,-4.65714 V 58.285734 L 35.772832,24.849256 c 1.489942,-0.983318 13.38773,-7.822408 14.125379,-8.016185 L 106.1999,44.826956 c 0.66639,0.384759 1.07676,1.095711 1.07657,1.865012 v 12.971101 c -0.004,2.522135 -1.34872,4.852213 -3.53109,6.116726 l -10.645764,6.145788 c -1.660038,0.969968 -3.714304,0.969968 -5.374327,0 h 8.6e-4 z"
         id="path2-6"
         style="stroke-width:2.15309" /><path
         fill="#d0cfce"
         d="m 88.579203,118.2098 v -7.18273 c 0.003,-2.28377 1.221663,-4.39338 3.197988,-5.53818 l 13.076389,-7.550488 c 1.90247,-1.097848 4.33482,-0.445682 5.43269,1.456802 0.34879,0.604583 0.53245,1.290116 0.53245,1.988156 0,0 -0.05,3.45637 -0.71072,3.97741 -4.39384,3.46497 -21.529012,13.51778 -21.528797,12.84903 z"
         id="path3-8"
         style="stroke-width:2.15309" /><path
         fill="#3f3f3f"
         d="m 87.695784,89.081446 v 1.869524 c 0,1.779748 1.442579,3.222542 3.222544,3.222542 0.565829,0 1.121531,-0.149058 1.611585,-0.431904 l 14.651377,-8.095645 c 1.51879,-0.876951 2.45453,-2.497374 2.45453,-4.251276 v -2.408028 c 0,-1.717312 -1.39219,-3.109503 -3.10951,-3.109503 -0.5458,0 -1.08192,0.143681 -1.55474,0.41663 l -14.523704,8.020699 c -1.702883,0.983321 -2.751867,2.80032 -2.751867,4.766748 z"
         id="path4-0"
         style="stroke-width:2.15309" /><polygon
         fill="none"
         stroke="#000000"
         stroke-linecap="round"
         stroke-linejoin="round"
         stroke-width="2"
         points="61.262,21.168 35.572,6.336 9.882,21.168 9.882,50.832 35.572,65.664 61.262,50.832 "
         id="polygon5"
         transform="matrix(2.1530944,0,0,2.1530944,-7.9606039,-9.8454912)" /><line
         x1="68.630135"
         x2="68.630135"
         y1="67.737587"
         y2="131.53572"
         fill="none"
         stroke="#000000"
         stroke-linecap="round"
         stroke-linejoin="round"
         stroke-width="4.30621"
         id="line5" /><line
         x1="68.754364"
         x2="13.441375"
         y1="67.737587"
         y2="35.8027"
         fill="none"
         stroke="#000000"
         stroke-linecap="round"
         stroke-linejoin="round"
         stroke-width="4.30621"
         id="line6" /><line
         x1="105.11324"
         x2="123.94315"
         y1="46.674095"
         y2="35.8027"
         fill="none"
         stroke="#000000"
         stroke-linecap="round"
         stroke-linejoin="round"
         stroke-width="4.30621"
         id="line7" /><line
         x1="68.630135"
         x2="87.180145"
         y1="67.737587"
         y2="57.027676"
         fill="none"
         stroke="#000000"
         stroke-linecap="round"
         stroke-linejoin="round"
         stroke-width="4.30621"
         id="line8" /><path
         fill="none"
         stroke="#000000"
         stroke-linecap="round"
         stroke-linejoin="round"
         stroke-width="4.30621"
         d="m 49.923181,14.821433 55.199959,31.869674 v 12.971962 c 0,1.753909 -0.93573,3.374329 -2.45451,4.251285 l -10.644691,6.14558 c -1.54119,0.889873 -3.512136,0.36194 -4.402224,-1.179252 -0.282906,-0.490044 -0.431906,-1.045757 -0.431906,-1.611592 V 57.044906 L 32.137546,25.139708"
         id="path8" /><path
         fill="none"
         stroke="#000000"
         stroke-linecap="round"
         stroke-linejoin="round"
         stroke-width="4.30621"
         d="m 108.66542,107.85621 v -6.47285 c 0,-1.00744 -0.81668,-1.824107 -1.82412,-1.824107 -0.32015,0 -0.63472,0.08414 -0.91204,0.244383 l -13.075731,7.549184 c -1.31296,0.75768 -2.121666,2.15849 -2.12145,3.67425 V 118.21"
         id="path9" /><path
         fill="none"
         stroke="#000000"
         stroke-linecap="round"
         stroke-linejoin="round"
         stroke-width="4.30621"
         d="m 87.695784,89.081446 v 1.869524 c 0,1.779748 1.442579,3.222542 3.222544,3.222542 0.565829,0 1.121531,-0.149058 1.611585,-0.431904 l 14.651377,-8.095645 c 1.51879,-0.876951 2.45453,-2.497374 2.45453,-4.251276 v -2.408028 c 0,-1.717312 -1.39219,-3.109503 -3.10951,-3.109503 -0.5458,0 -1.08192,0.143681 -1.55474,0.41663 l -14.523704,8.020699 c -1.702883,0.983321 -2.751867,2.80032 -2.751867,4.766748 z"
         id="path10" /></g><text
       xml:space="preserve"
       style="font-style:normal;font-variant:normal;font-weight:normal;font-stretch:normal;font-size:28.22222222px;font-family:alex;-inkscape-font-specification:alex;fill:#000000;fill-opacity:1;fill-rule:nonzero;stroke-width:0.256;stroke-dasharray:none;paint-order:stroke markers fill;stroke:none;stroke-opacity:1"
       x="60.717896"
       y="131.51312"
       id="text1"><tspan
         sodipodi:role="line"
         id="tspan1"
         style="font-style:normal;font-variant:normal;font-weight:normal;font-stretch:normal;font-family:'Dancing Script';-inkscape-font-specification:'Dancing Script';fill:#000000;fill-opacity:1;stroke-width:0.256;font-size:28.22222222px;stroke-dasharray:none;paint-order:stroke markers fill;stroke:none;stroke-opacity:1;fill-rule:nonzero"
         x="60.717896"
         y="131.51312">sqlite import</tspan></text><text
       xml:space="preserve"
       style="font-style:normal;font-variant:normal;font-weight:normal;font-stretch:normal;font-size:6.35px;font-family:'Noto Sans';-inkscape-font-specification:'Noto Sans';fill:#000000;stroke:none;stroke-width:2.70899;stroke-linecap:round;stroke-linejoin:round"
       x="60.503391"
       y="146.01974"
       id="text2"><tspan
         sodipodi:role="line"
         id="tspan2"
         style="font-style:normal;font-variant:normal;font-weight:normal;font-stretch:normal;font-size:6.35px;font-family:'Noto Sans';-inkscape-font-specification:'Noto Sans';fill:#000000;stroke:none;stroke-width:2.709;stroke-opacity:1"
         x="60.503391"
         y="146.01974">Import Python code from sqlite databases</tspan></text></g></svg>
